<mxfile host="app.diagrams.net" modified="2021-08-19T14:41:57.768Z" agent="5.0 (Windows NT 10.0; Win64; x64) AppleWebKit/537.36 (KHTML, like Gecko) Chrome/92.0.4515.159 Safari/537.36" etag="CzuDRtY2XpRMYLgn1RoC" version="14.9.8" type="github">
  <diagram id="C5RBs43oDa-KdzZeNtuy" name="Page-1">
    <mxGraphModel dx="1935" dy="450" grid="1" gridSize="10" guides="1" tooltips="1" connect="1" arrows="1" fold="1" page="1" pageScale="1" pageWidth="827" pageHeight="1169" math="0" shadow="0">
      <root>
        <mxCell id="WIyWlLk6GJQsqaUBKTNV-0" />
        <mxCell id="WIyWlLk6GJQsqaUBKTNV-1" parent="WIyWlLk6GJQsqaUBKTNV-0" />
        <mxCell id="eYUs70hzC6F7jjjSVWgN-49" style="edgeStyle=none;rounded=0;orthogonalLoop=1;jettySize=auto;html=1;exitX=1;exitY=0.5;exitDx=0;exitDy=0;entryX=0;entryY=0.5;entryDx=0;entryDy=0;" edge="1" parent="WIyWlLk6GJQsqaUBKTNV-1" source="eYUs70hzC6F7jjjSVWgN-1" target="eYUs70hzC6F7jjjSVWgN-41">
          <mxGeometry relative="1" as="geometry" />
        </mxCell>
        <mxCell id="eYUs70hzC6F7jjjSVWgN-1" value="有数数据门户" style="swimlane;" vertex="1" parent="WIyWlLk6GJQsqaUBKTNV-1">
          <mxGeometry x="530" y="160" width="230" height="270" as="geometry" />
        </mxCell>
        <mxCell id="eYUs70hzC6F7jjjSVWgN-28" value="一级菜单" style="rounded=0;whiteSpace=wrap;html=1;" vertex="1" parent="eYUs70hzC6F7jjjSVWgN-1">
          <mxGeometry x="30" y="35" width="120" height="25" as="geometry" />
        </mxCell>
        <mxCell id="eYUs70hzC6F7jjjSVWgN-29" value="一级菜单" style="rounded=0;whiteSpace=wrap;html=1;" vertex="1" parent="eYUs70hzC6F7jjjSVWgN-1">
          <mxGeometry x="30" y="120" width="120" height="25" as="geometry" />
        </mxCell>
        <mxCell id="eYUs70hzC6F7jjjSVWgN-30" value="一级菜单" style="rounded=0;whiteSpace=wrap;html=1;" vertex="1" parent="eYUs70hzC6F7jjjSVWgN-1">
          <mxGeometry x="30" y="180" width="120" height="25" as="geometry" />
        </mxCell>
        <mxCell id="eYUs70hzC6F7jjjSVWgN-31" value="二级菜单" style="rounded=0;whiteSpace=wrap;html=1;" vertex="1" parent="eYUs70hzC6F7jjjSVWgN-1">
          <mxGeometry x="50" y="60" width="130" height="25" as="geometry" />
        </mxCell>
        <mxCell id="eYUs70hzC6F7jjjSVWgN-32" value="三级菜单" style="rounded=0;whiteSpace=wrap;html=1;" vertex="1" parent="eYUs70hzC6F7jjjSVWgN-1">
          <mxGeometry x="70" y="85" width="140" height="25" as="geometry" />
        </mxCell>
        <mxCell id="eYUs70hzC6F7jjjSVWgN-33" value="二级菜单" style="rounded=0;whiteSpace=wrap;html=1;" vertex="1" parent="eYUs70hzC6F7jjjSVWgN-1">
          <mxGeometry x="50" y="145" width="130" height="25" as="geometry" />
        </mxCell>
        <mxCell id="eYUs70hzC6F7jjjSVWgN-35" value="一级菜单" style="rounded=0;whiteSpace=wrap;html=1;" vertex="1" parent="eYUs70hzC6F7jjjSVWgN-1">
          <mxGeometry x="30" y="220" width="120" height="25" as="geometry" />
        </mxCell>
        <mxCell id="eYUs70hzC6F7jjjSVWgN-6" style="rounded=0;orthogonalLoop=1;jettySize=auto;html=1;exitX=1;exitY=0.5;exitDx=0;exitDy=0;entryX=-0.089;entryY=0.08;entryDx=0;entryDy=0;entryPerimeter=0;" edge="1" parent="WIyWlLk6GJQsqaUBKTNV-1" source="eYUs70hzC6F7jjjSVWgN-2" target="eYUs70hzC6F7jjjSVWgN-5">
          <mxGeometry relative="1" as="geometry" />
        </mxCell>
        <mxCell id="eYUs70hzC6F7jjjSVWgN-2" value="" style="aspect=fixed;perimeter=ellipsePerimeter;html=1;align=center;shadow=0;dashed=0;spacingTop=3;image;image=img/lib/active_directory/databases.svg;" vertex="1" parent="WIyWlLk6GJQsqaUBKTNV-1">
          <mxGeometry x="10" y="180" width="50" height="49" as="geometry" />
        </mxCell>
        <mxCell id="eYUs70hzC6F7jjjSVWgN-7" style="edgeStyle=none;rounded=0;orthogonalLoop=1;jettySize=auto;html=1;entryX=0;entryY=0.5;entryDx=0;entryDy=0;" edge="1" parent="WIyWlLk6GJQsqaUBKTNV-1" source="eYUs70hzC6F7jjjSVWgN-3" target="eYUs70hzC6F7jjjSVWgN-5">
          <mxGeometry relative="1" as="geometry" />
        </mxCell>
        <mxCell id="eYUs70hzC6F7jjjSVWgN-3" value="" style="aspect=fixed;perimeter=ellipsePerimeter;html=1;align=center;shadow=0;dashed=0;spacingTop=3;image;image=img/lib/active_directory/databases.svg;" vertex="1" parent="WIyWlLk6GJQsqaUBKTNV-1">
          <mxGeometry x="10" y="250" width="50" height="49" as="geometry" />
        </mxCell>
        <mxCell id="eYUs70hzC6F7jjjSVWgN-8" style="edgeStyle=none;rounded=0;orthogonalLoop=1;jettySize=auto;html=1;exitX=1;exitY=0.5;exitDx=0;exitDy=0;entryX=-0.089;entryY=0.82;entryDx=0;entryDy=0;entryPerimeter=0;" edge="1" parent="WIyWlLk6GJQsqaUBKTNV-1" source="eYUs70hzC6F7jjjSVWgN-4" target="eYUs70hzC6F7jjjSVWgN-5">
          <mxGeometry relative="1" as="geometry" />
        </mxCell>
        <mxCell id="eYUs70hzC6F7jjjSVWgN-4" value="" style="aspect=fixed;perimeter=ellipsePerimeter;html=1;align=center;shadow=0;dashed=0;spacingTop=3;image;image=img/lib/active_directory/databases.svg;" vertex="1" parent="WIyWlLk6GJQsqaUBKTNV-1">
          <mxGeometry x="10" y="331" width="50" height="49" as="geometry" />
        </mxCell>
        <mxCell id="eYUs70hzC6F7jjjSVWgN-10" style="edgeStyle=none;rounded=0;orthogonalLoop=1;jettySize=auto;html=1;exitX=1;exitY=0.5;exitDx=0;exitDy=0;entryX=0;entryY=0.5;entryDx=0;entryDy=0;" edge="1" parent="WIyWlLk6GJQsqaUBKTNV-1" source="eYUs70hzC6F7jjjSVWgN-5" target="eYUs70hzC6F7jjjSVWgN-9">
          <mxGeometry relative="1" as="geometry" />
        </mxCell>
        <mxCell id="eYUs70hzC6F7jjjSVWgN-5" value="" style="aspect=fixed;perimeter=ellipsePerimeter;html=1;align=center;shadow=0;dashed=0;spacingTop=3;image;image=img/lib/active_directory/database_cube.svg;" vertex="1" parent="WIyWlLk6GJQsqaUBKTNV-1">
          <mxGeometry x="130" y="250" width="45" height="50" as="geometry" />
        </mxCell>
        <mxCell id="eYUs70hzC6F7jjjSVWgN-15" style="edgeStyle=none;rounded=0;orthogonalLoop=1;jettySize=auto;html=1;exitX=1;exitY=0;exitDx=0;exitDy=0;entryX=0;entryY=0.5;entryDx=0;entryDy=0;" edge="1" parent="WIyWlLk6GJQsqaUBKTNV-1" source="eYUs70hzC6F7jjjSVWgN-9" target="eYUs70hzC6F7jjjSVWgN-12">
          <mxGeometry relative="1" as="geometry" />
        </mxCell>
        <mxCell id="eYUs70hzC6F7jjjSVWgN-16" style="edgeStyle=none;rounded=0;orthogonalLoop=1;jettySize=auto;html=1;exitX=1;exitY=0.75;exitDx=0;exitDy=0;entryX=0;entryY=0.5;entryDx=0;entryDy=0;" edge="1" parent="WIyWlLk6GJQsqaUBKTNV-1" source="eYUs70hzC6F7jjjSVWgN-9" target="eYUs70hzC6F7jjjSVWgN-13">
          <mxGeometry relative="1" as="geometry" />
        </mxCell>
        <mxCell id="eYUs70hzC6F7jjjSVWgN-17" style="edgeStyle=none;rounded=0;orthogonalLoop=1;jettySize=auto;html=1;exitX=0.75;exitY=1;exitDx=0;exitDy=0;" edge="1" parent="WIyWlLk6GJQsqaUBKTNV-1" source="eYUs70hzC6F7jjjSVWgN-9">
          <mxGeometry relative="1" as="geometry">
            <mxPoint x="290" y="340" as="targetPoint" />
          </mxGeometry>
        </mxCell>
        <mxCell id="eYUs70hzC6F7jjjSVWgN-9" value="DATA" style="text;html=1;strokeColor=none;fillColor=none;align=center;verticalAlign=middle;whiteSpace=wrap;rounded=0;" vertex="1" parent="WIyWlLk6GJQsqaUBKTNV-1">
          <mxGeometry x="220" y="265" width="40" height="20" as="geometry" />
        </mxCell>
        <mxCell id="eYUs70hzC6F7jjjSVWgN-23" style="edgeStyle=none;rounded=0;orthogonalLoop=1;jettySize=auto;html=1;exitX=1;exitY=0.5;exitDx=0;exitDy=0;" edge="1" parent="WIyWlLk6GJQsqaUBKTNV-1" source="eYUs70hzC6F7jjjSVWgN-12">
          <mxGeometry relative="1" as="geometry">
            <mxPoint x="400" y="210" as="targetPoint" />
          </mxGeometry>
        </mxCell>
        <mxCell id="eYUs70hzC6F7jjjSVWgN-25" style="edgeStyle=none;rounded=0;orthogonalLoop=1;jettySize=auto;html=1;exitX=1;exitY=0.75;exitDx=0;exitDy=0;" edge="1" parent="WIyWlLk6GJQsqaUBKTNV-1" source="eYUs70hzC6F7jjjSVWgN-12">
          <mxGeometry relative="1" as="geometry">
            <mxPoint x="400" y="270" as="targetPoint" />
          </mxGeometry>
        </mxCell>
        <mxCell id="eYUs70hzC6F7jjjSVWgN-12" value="" style="aspect=fixed;perimeter=ellipsePerimeter;html=1;align=center;shadow=0;dashed=0;spacingTop=3;image;image=img/lib/active_directory/list.svg;" vertex="1" parent="WIyWlLk6GJQsqaUBKTNV-1">
          <mxGeometry x="300" y="200" width="35" height="50" as="geometry" />
        </mxCell>
        <mxCell id="eYUs70hzC6F7jjjSVWgN-24" style="edgeStyle=none;rounded=0;orthogonalLoop=1;jettySize=auto;html=1;exitX=1;exitY=0.75;exitDx=0;exitDy=0;" edge="1" parent="WIyWlLk6GJQsqaUBKTNV-1" source="eYUs70hzC6F7jjjSVWgN-13">
          <mxGeometry relative="1" as="geometry">
            <mxPoint x="400" y="230" as="targetPoint" />
          </mxGeometry>
        </mxCell>
        <mxCell id="eYUs70hzC6F7jjjSVWgN-13" value="" style="aspect=fixed;perimeter=ellipsePerimeter;html=1;align=center;shadow=0;dashed=0;spacingTop=3;image;image=img/lib/active_directory/list.svg;" vertex="1" parent="WIyWlLk6GJQsqaUBKTNV-1">
          <mxGeometry x="300" y="265" width="35" height="50" as="geometry" />
        </mxCell>
        <mxCell id="eYUs70hzC6F7jjjSVWgN-26" style="edgeStyle=none;rounded=0;orthogonalLoop=1;jettySize=auto;html=1;exitX=1;exitY=0.5;exitDx=0;exitDy=0;" edge="1" parent="WIyWlLk6GJQsqaUBKTNV-1" source="eYUs70hzC6F7jjjSVWgN-14">
          <mxGeometry relative="1" as="geometry">
            <mxPoint x="390" y="320" as="targetPoint" />
          </mxGeometry>
        </mxCell>
        <mxCell id="eYUs70hzC6F7jjjSVWgN-14" value="" style="aspect=fixed;perimeter=ellipsePerimeter;html=1;align=center;shadow=0;dashed=0;spacingTop=3;image;image=img/lib/active_directory/list.svg;" vertex="1" parent="WIyWlLk6GJQsqaUBKTNV-1">
          <mxGeometry x="300" y="330" width="35" height="50" as="geometry" />
        </mxCell>
        <mxCell id="eYUs70hzC6F7jjjSVWgN-34" style="edgeStyle=none;rounded=0;orthogonalLoop=1;jettySize=auto;html=1;exitX=1;exitY=0.5;exitDx=0;exitDy=0;" edge="1" parent="WIyWlLk6GJQsqaUBKTNV-1" source="eYUs70hzC6F7jjjSVWgN-18">
          <mxGeometry relative="1" as="geometry">
            <mxPoint x="590" y="260" as="targetPoint" />
          </mxGeometry>
        </mxCell>
        <mxCell id="eYUs70hzC6F7jjjSVWgN-18" value="&lt;font style=&quot;font-size: 18px&quot;&gt;报告&lt;/font&gt;" style="text;html=1;strokeColor=none;fillColor=none;align=center;verticalAlign=middle;whiteSpace=wrap;rounded=0;" vertex="1" parent="WIyWlLk6GJQsqaUBKTNV-1">
          <mxGeometry x="414" y="194.5" width="46" height="25.5" as="geometry" />
        </mxCell>
        <mxCell id="eYUs70hzC6F7jjjSVWgN-36" style="edgeStyle=none;rounded=0;orthogonalLoop=1;jettySize=auto;html=1;exitX=1;exitY=0.75;exitDx=0;exitDy=0;" edge="1" parent="WIyWlLk6GJQsqaUBKTNV-1" source="eYUs70hzC6F7jjjSVWgN-19">
          <mxGeometry relative="1" as="geometry">
            <mxPoint x="570" y="320" as="targetPoint" />
          </mxGeometry>
        </mxCell>
        <mxCell id="eYUs70hzC6F7jjjSVWgN-19" value="&lt;font style=&quot;font-size: 18px&quot;&gt;大屏&lt;/font&gt;" style="text;html=1;strokeColor=none;fillColor=none;align=center;verticalAlign=middle;whiteSpace=wrap;rounded=0;" vertex="1" parent="WIyWlLk6GJQsqaUBKTNV-1">
          <mxGeometry x="414" y="250" width="46" height="25.5" as="geometry" />
        </mxCell>
        <mxCell id="eYUs70hzC6F7jjjSVWgN-37" style="edgeStyle=none;rounded=0;orthogonalLoop=1;jettySize=auto;html=1;exitX=1;exitY=0.5;exitDx=0;exitDy=0;" edge="1" parent="WIyWlLk6GJQsqaUBKTNV-1" source="eYUs70hzC6F7jjjSVWgN-21">
          <mxGeometry relative="1" as="geometry">
            <mxPoint x="550" y="350" as="targetPoint" />
          </mxGeometry>
        </mxCell>
        <mxCell id="eYUs70hzC6F7jjjSVWgN-21" value="&lt;font style=&quot;font-size: 18px&quot;&gt;复杂报表&lt;/font&gt;" style="text;html=1;strokeColor=none;fillColor=none;align=center;verticalAlign=middle;whiteSpace=wrap;rounded=0;" vertex="1" parent="WIyWlLk6GJQsqaUBKTNV-1">
          <mxGeometry x="401" y="305.5" width="76" height="25.5" as="geometry" />
        </mxCell>
        <mxCell id="eYUs70hzC6F7jjjSVWgN-38" style="edgeStyle=none;rounded=0;orthogonalLoop=1;jettySize=auto;html=1;exitX=1;exitY=0.5;exitDx=0;exitDy=0;" edge="1" parent="WIyWlLk6GJQsqaUBKTNV-1" source="eYUs70hzC6F7jjjSVWgN-22">
          <mxGeometry relative="1" as="geometry">
            <mxPoint x="550" y="390" as="targetPoint" />
          </mxGeometry>
        </mxCell>
        <mxCell id="eYUs70hzC6F7jjjSVWgN-22" value="&lt;font style=&quot;font-size: 18px&quot;&gt;外部URL&lt;/font&gt;" style="text;html=1;strokeColor=none;fillColor=none;align=center;verticalAlign=middle;whiteSpace=wrap;rounded=0;" vertex="1" parent="WIyWlLk6GJQsqaUBKTNV-1">
          <mxGeometry x="399" y="354.5" width="76" height="25.5" as="geometry" />
        </mxCell>
        <mxCell id="eYUs70hzC6F7jjjSVWgN-39" value="图表" style="text;html=1;strokeColor=none;fillColor=none;align=center;verticalAlign=middle;whiteSpace=wrap;rounded=0;" vertex="1" parent="WIyWlLk6GJQsqaUBKTNV-1">
          <mxGeometry x="295" y="160" width="40" height="20" as="geometry" />
        </mxCell>
        <mxCell id="eYUs70hzC6F7jjjSVWgN-40" value="&lt;font style=&quot;font-size: 14px&quot;&gt;编辑者制作门户&lt;/font&gt;" style="text;html=1;strokeColor=none;fillColor=none;align=center;verticalAlign=middle;whiteSpace=wrap;rounded=0;" vertex="1" parent="WIyWlLk6GJQsqaUBKTNV-1">
          <mxGeometry x="585" y="140" width="120" height="10" as="geometry" />
        </mxCell>
        <mxCell id="eYUs70hzC6F7jjjSVWgN-41" value="有数数据门户" style="swimlane;" vertex="1" parent="WIyWlLk6GJQsqaUBKTNV-1">
          <mxGeometry x="840" y="160" width="230" height="270" as="geometry" />
        </mxCell>
        <mxCell id="eYUs70hzC6F7jjjSVWgN-42" value="一级菜单" style="rounded=0;whiteSpace=wrap;html=1;" vertex="1" parent="eYUs70hzC6F7jjjSVWgN-41">
          <mxGeometry x="30" y="35" width="120" height="25" as="geometry" />
        </mxCell>
        <mxCell id="eYUs70hzC6F7jjjSVWgN-43" value="一级菜单" style="rounded=0;whiteSpace=wrap;html=1;" vertex="1" parent="eYUs70hzC6F7jjjSVWgN-41">
          <mxGeometry x="30" y="120" width="120" height="25" as="geometry" />
        </mxCell>
        <mxCell id="eYUs70hzC6F7jjjSVWgN-44" value="一级菜单" style="rounded=0;whiteSpace=wrap;html=1;" vertex="1" parent="eYUs70hzC6F7jjjSVWgN-41">
          <mxGeometry x="30" y="180" width="120" height="25" as="geometry" />
        </mxCell>
        <mxCell id="eYUs70hzC6F7jjjSVWgN-45" value="二级菜单" style="rounded=0;whiteSpace=wrap;html=1;" vertex="1" parent="eYUs70hzC6F7jjjSVWgN-41">
          <mxGeometry x="50" y="60" width="130" height="25" as="geometry" />
        </mxCell>
        <mxCell id="eYUs70hzC6F7jjjSVWgN-46" value="三级菜单" style="rounded=0;whiteSpace=wrap;html=1;" vertex="1" parent="eYUs70hzC6F7jjjSVWgN-41">
          <mxGeometry x="70" y="85" width="140" height="25" as="geometry" />
        </mxCell>
        <mxCell id="eYUs70hzC6F7jjjSVWgN-47" value="二级菜单" style="rounded=0;whiteSpace=wrap;html=1;" vertex="1" parent="eYUs70hzC6F7jjjSVWgN-41">
          <mxGeometry x="50" y="145" width="130" height="25" as="geometry" />
        </mxCell>
        <mxCell id="eYUs70hzC6F7jjjSVWgN-48" value="一级菜单" style="rounded=0;whiteSpace=wrap;html=1;" vertex="1" parent="eYUs70hzC6F7jjjSVWgN-41">
          <mxGeometry x="30" y="220" width="120" height="25" as="geometry" />
        </mxCell>
        <mxCell id="eYUs70hzC6F7jjjSVWgN-50" value="发布门户" style="text;html=1;strokeColor=none;fillColor=none;align=center;verticalAlign=middle;whiteSpace=wrap;rounded=0;" vertex="1" parent="WIyWlLk6GJQsqaUBKTNV-1">
          <mxGeometry x="780" y="270" width="50" height="20" as="geometry" />
        </mxCell>
        <mxCell id="eYUs70hzC6F7jjjSVWgN-51" value="设置权限" style="text;html=1;strokeColor=none;fillColor=none;align=center;verticalAlign=middle;whiteSpace=wrap;rounded=0;" vertex="1" parent="WIyWlLk6GJQsqaUBKTNV-1">
          <mxGeometry x="780" y="305.5" width="50" height="20" as="geometry" />
        </mxCell>
        <mxCell id="eYUs70hzC6F7jjjSVWgN-52" value="&lt;font style=&quot;font-size: 14px&quot;&gt;阅览者浏览门户&lt;/font&gt;" style="text;html=1;strokeColor=none;fillColor=none;align=center;verticalAlign=middle;whiteSpace=wrap;rounded=0;" vertex="1" parent="WIyWlLk6GJQsqaUBKTNV-1">
          <mxGeometry x="895" y="140" width="120" height="10" as="geometry" />
        </mxCell>
        <mxCell id="eYUs70hzC6F7jjjSVWgN-64" style="edgeStyle=none;rounded=0;orthogonalLoop=1;jettySize=auto;html=1;exitX=0.5;exitY=1;exitDx=0;exitDy=0;entryX=0.5;entryY=0;entryDx=0;entryDy=0;" edge="1" parent="WIyWlLk6GJQsqaUBKTNV-1" source="eYUs70hzC6F7jjjSVWgN-55" target="eYUs70hzC6F7jjjSVWgN-63">
          <mxGeometry relative="1" as="geometry" />
        </mxCell>
        <mxCell id="eYUs70hzC6F7jjjSVWgN-91" style="edgeStyle=orthogonalEdgeStyle;rounded=0;orthogonalLoop=1;jettySize=auto;html=1;exitX=1;exitY=0.5;exitDx=0;exitDy=0;entryX=0;entryY=0.5;entryDx=0;entryDy=0;" edge="1" parent="WIyWlLk6GJQsqaUBKTNV-1" source="eYUs70hzC6F7jjjSVWgN-55" target="eYUs70hzC6F7jjjSVWgN-89">
          <mxGeometry relative="1" as="geometry" />
        </mxCell>
        <mxCell id="eYUs70hzC6F7jjjSVWgN-55" value="设定看板资源范围" style="rounded=0;whiteSpace=wrap;html=1;" vertex="1" parent="WIyWlLk6GJQsqaUBKTNV-1">
          <mxGeometry x="140" y="660" width="120" height="30" as="geometry" />
        </mxCell>
        <mxCell id="eYUs70hzC6F7jjjSVWgN-67" style="edgeStyle=orthogonalEdgeStyle;rounded=0;orthogonalLoop=1;jettySize=auto;html=1;exitX=1;exitY=0.5;exitDx=0;exitDy=0;entryX=0;entryY=0.5;entryDx=0;entryDy=0;" edge="1" parent="WIyWlLk6GJQsqaUBKTNV-1" source="eYUs70hzC6F7jjjSVWgN-60" target="eYUs70hzC6F7jjjSVWgN-61">
          <mxGeometry relative="1" as="geometry" />
        </mxCell>
        <mxCell id="eYUs70hzC6F7jjjSVWgN-60" value="编辑者创建门户" style="rounded=0;whiteSpace=wrap;html=1;" vertex="1" parent="WIyWlLk6GJQsqaUBKTNV-1">
          <mxGeometry x="-10" y="610" width="120" height="30" as="geometry" />
        </mxCell>
        <mxCell id="eYUs70hzC6F7jjjSVWgN-80" style="edgeStyle=orthogonalEdgeStyle;rounded=0;orthogonalLoop=1;jettySize=auto;html=1;exitX=0.5;exitY=1;exitDx=0;exitDy=0;entryX=0.5;entryY=0;entryDx=0;entryDy=0;" edge="1" parent="WIyWlLk6GJQsqaUBKTNV-1" source="eYUs70hzC6F7jjjSVWgN-61" target="eYUs70hzC6F7jjjSVWgN-55">
          <mxGeometry relative="1" as="geometry" />
        </mxCell>
        <mxCell id="eYUs70hzC6F7jjjSVWgN-92" style="edgeStyle=orthogonalEdgeStyle;rounded=0;orthogonalLoop=1;jettySize=auto;html=1;exitX=1;exitY=0.5;exitDx=0;exitDy=0;entryX=0.5;entryY=0;entryDx=0;entryDy=0;" edge="1" parent="WIyWlLk6GJQsqaUBKTNV-1" source="eYUs70hzC6F7jjjSVWgN-61" target="eYUs70hzC6F7jjjSVWgN-89">
          <mxGeometry relative="1" as="geometry">
            <Array as="points">
              <mxPoint x="390" y="625" />
            </Array>
          </mxGeometry>
        </mxCell>
        <mxCell id="eYUs70hzC6F7jjjSVWgN-61" value="构建自定义组件" style="rounded=0;whiteSpace=wrap;html=1;" vertex="1" parent="WIyWlLk6GJQsqaUBKTNV-1">
          <mxGeometry x="140" y="610" width="120" height="30" as="geometry" />
        </mxCell>
        <mxCell id="eYUs70hzC6F7jjjSVWgN-82" style="edgeStyle=orthogonalEdgeStyle;rounded=0;orthogonalLoop=1;jettySize=auto;html=1;exitX=0.5;exitY=1;exitDx=0;exitDy=0;entryX=0.5;entryY=0;entryDx=0;entryDy=0;" edge="1" parent="WIyWlLk6GJQsqaUBKTNV-1" source="eYUs70hzC6F7jjjSVWgN-63" target="eYUs70hzC6F7jjjSVWgN-81">
          <mxGeometry relative="1" as="geometry" />
        </mxCell>
        <mxCell id="eYUs70hzC6F7jjjSVWgN-63" value="设定默认访问资源" style="rounded=0;whiteSpace=wrap;html=1;" vertex="1" parent="WIyWlLk6GJQsqaUBKTNV-1">
          <mxGeometry x="140" y="710" width="120" height="30" as="geometry" />
        </mxCell>
        <mxCell id="eYUs70hzC6F7jjjSVWgN-72" style="edgeStyle=orthogonalEdgeStyle;rounded=0;orthogonalLoop=1;jettySize=auto;html=1;exitX=0.5;exitY=1;exitDx=0;exitDy=0;" edge="1" parent="WIyWlLk6GJQsqaUBKTNV-1" source="eYUs70hzC6F7jjjSVWgN-65" target="eYUs70hzC6F7jjjSVWgN-70">
          <mxGeometry relative="1" as="geometry" />
        </mxCell>
        <mxCell id="eYUs70hzC6F7jjjSVWgN-65" value="设定接收者范围" style="rounded=0;whiteSpace=wrap;html=1;" vertex="1" parent="WIyWlLk6GJQsqaUBKTNV-1">
          <mxGeometry x="140" y="810" width="120" height="30" as="geometry" />
        </mxCell>
        <mxCell id="eYUs70hzC6F7jjjSVWgN-70" value="发布门户" style="rounded=0;whiteSpace=wrap;html=1;" vertex="1" parent="WIyWlLk6GJQsqaUBKTNV-1">
          <mxGeometry x="140" y="860" width="120" height="30" as="geometry" />
        </mxCell>
        <mxCell id="eYUs70hzC6F7jjjSVWgN-76" style="edgeStyle=orthogonalEdgeStyle;rounded=0;orthogonalLoop=1;jettySize=auto;html=1;exitX=0.5;exitY=0;exitDx=0;exitDy=0;entryX=0.5;entryY=1;entryDx=0;entryDy=0;" edge="1" parent="WIyWlLk6GJQsqaUBKTNV-1" source="eYUs70hzC6F7jjjSVWgN-74" target="eYUs70hzC6F7jjjSVWgN-75">
          <mxGeometry relative="1" as="geometry" />
        </mxCell>
        <mxCell id="eYUs70hzC6F7jjjSVWgN-74" value="阅览者" style="rounded=0;whiteSpace=wrap;html=1;" vertex="1" parent="WIyWlLk6GJQsqaUBKTNV-1">
          <mxGeometry x="330" y="860" width="120" height="30" as="geometry" />
        </mxCell>
        <mxCell id="eYUs70hzC6F7jjjSVWgN-78" style="edgeStyle=orthogonalEdgeStyle;rounded=0;orthogonalLoop=1;jettySize=auto;html=1;exitX=0;exitY=0.5;exitDx=0;exitDy=0;entryX=1;entryY=0.5;entryDx=0;entryDy=0;" edge="1" parent="WIyWlLk6GJQsqaUBKTNV-1" source="eYUs70hzC6F7jjjSVWgN-75" target="eYUs70hzC6F7jjjSVWgN-65">
          <mxGeometry relative="1" as="geometry">
            <mxPoint x="270" y="825" as="targetPoint" />
          </mxGeometry>
        </mxCell>
        <mxCell id="eYUs70hzC6F7jjjSVWgN-85" style="edgeStyle=orthogonalEdgeStyle;rounded=0;orthogonalLoop=1;jettySize=auto;html=1;exitX=0.5;exitY=0;exitDx=0;exitDy=0;entryX=0.5;entryY=1;entryDx=0;entryDy=0;" edge="1" parent="WIyWlLk6GJQsqaUBKTNV-1" source="eYUs70hzC6F7jjjSVWgN-75" target="eYUs70hzC6F7jjjSVWgN-84">
          <mxGeometry relative="1" as="geometry" />
        </mxCell>
        <mxCell id="eYUs70hzC6F7jjjSVWgN-75" value="是否在接收者范围？" style="rhombus;whiteSpace=wrap;html=1;" vertex="1" parent="WIyWlLk6GJQsqaUBKTNV-1">
          <mxGeometry x="330" y="805" width="120" height="40" as="geometry" />
        </mxCell>
        <mxCell id="eYUs70hzC6F7jjjSVWgN-83" style="edgeStyle=orthogonalEdgeStyle;rounded=0;orthogonalLoop=1;jettySize=auto;html=1;exitX=0.5;exitY=1;exitDx=0;exitDy=0;" edge="1" parent="WIyWlLk6GJQsqaUBKTNV-1" source="eYUs70hzC6F7jjjSVWgN-81" target="eYUs70hzC6F7jjjSVWgN-65">
          <mxGeometry relative="1" as="geometry" />
        </mxCell>
        <mxCell id="eYUs70hzC6F7jjjSVWgN-81" value="开启自定义功能选项" style="rounded=0;whiteSpace=wrap;html=1;" vertex="1" parent="WIyWlLk6GJQsqaUBKTNV-1">
          <mxGeometry x="140" y="760" width="120" height="30" as="geometry" />
        </mxCell>
        <mxCell id="eYUs70hzC6F7jjjSVWgN-86" style="edgeStyle=orthogonalEdgeStyle;rounded=0;orthogonalLoop=1;jettySize=auto;html=1;exitX=0;exitY=0.5;exitDx=0;exitDy=0;entryX=1;entryY=0.5;entryDx=0;entryDy=0;" edge="1" parent="WIyWlLk6GJQsqaUBKTNV-1" source="eYUs70hzC6F7jjjSVWgN-84" target="eYUs70hzC6F7jjjSVWgN-81">
          <mxGeometry relative="1" as="geometry" />
        </mxCell>
        <mxCell id="eYUs70hzC6F7jjjSVWgN-90" style="edgeStyle=orthogonalEdgeStyle;rounded=0;orthogonalLoop=1;jettySize=auto;html=1;exitX=0.5;exitY=0;exitDx=0;exitDy=0;" edge="1" parent="WIyWlLk6GJQsqaUBKTNV-1" source="eYUs70hzC6F7jjjSVWgN-84" target="eYUs70hzC6F7jjjSVWgN-89">
          <mxGeometry relative="1" as="geometry" />
        </mxCell>
        <mxCell id="eYUs70hzC6F7jjjSVWgN-84" value="是否开启自定义？" style="rhombus;whiteSpace=wrap;html=1;" vertex="1" parent="WIyWlLk6GJQsqaUBKTNV-1">
          <mxGeometry x="330" y="739" width="120" height="40" as="geometry" />
        </mxCell>
        <mxCell id="eYUs70hzC6F7jjjSVWgN-87" value="是，可以访问门户" style="text;html=1;strokeColor=none;fillColor=none;align=center;verticalAlign=middle;whiteSpace=wrap;rounded=0;" vertex="1" parent="WIyWlLk6GJQsqaUBKTNV-1">
          <mxGeometry x="414" y="790" width="121" height="20" as="geometry" />
        </mxCell>
        <mxCell id="eYUs70hzC6F7jjjSVWgN-88" value="是，可以构建自定义门户" style="text;html=1;strokeColor=none;fillColor=none;align=center;verticalAlign=middle;whiteSpace=wrap;rounded=0;" vertex="1" parent="WIyWlLk6GJQsqaUBKTNV-1">
          <mxGeometry x="420" y="720" width="146" height="20" as="geometry" />
        </mxCell>
        <mxCell id="eYUs70hzC6F7jjjSVWgN-94" style="edgeStyle=orthogonalEdgeStyle;rounded=0;orthogonalLoop=1;jettySize=auto;html=1;exitX=1;exitY=0.5;exitDx=0;exitDy=0;entryX=0;entryY=0.5;entryDx=0;entryDy=0;" edge="1" parent="WIyWlLk6GJQsqaUBKTNV-1" source="eYUs70hzC6F7jjjSVWgN-89" target="eYUs70hzC6F7jjjSVWgN-93">
          <mxGeometry relative="1" as="geometry" />
        </mxCell>
        <mxCell id="eYUs70hzC6F7jjjSVWgN-89" value="选择可创建的组件，范围内的资源" style="rhombus;whiteSpace=wrap;html=1;" vertex="1" parent="WIyWlLk6GJQsqaUBKTNV-1">
          <mxGeometry x="330" y="637.5" width="120" height="75" as="geometry" />
        </mxCell>
        <mxCell id="eYUs70hzC6F7jjjSVWgN-93" value="完成自定义菜单创建" style="rounded=0;whiteSpace=wrap;html=1;" vertex="1" parent="WIyWlLk6GJQsqaUBKTNV-1">
          <mxGeometry x="500" y="660" width="120" height="30" as="geometry" />
        </mxCell>
        <mxCell id="eYUs70hzC6F7jjjSVWgN-100" style="edgeStyle=orthogonalEdgeStyle;rounded=0;orthogonalLoop=1;jettySize=auto;html=1;exitX=1;exitY=0.25;exitDx=0;exitDy=0;entryX=0;entryY=0.25;entryDx=0;entryDy=0;" edge="1" parent="WIyWlLk6GJQsqaUBKTNV-1" source="eYUs70hzC6F7jjjSVWgN-95" target="eYUs70hzC6F7jjjSVWgN-96">
          <mxGeometry relative="1" as="geometry" />
        </mxCell>
        <mxCell id="eYUs70hzC6F7jjjSVWgN-95" value="" style="aspect=fixed;perimeter=ellipsePerimeter;html=1;align=center;shadow=0;dashed=0;spacingTop=3;image;image=img/lib/active_directory/vista_terminal.svg;" vertex="1" parent="WIyWlLk6GJQsqaUBKTNV-1">
          <mxGeometry x="60" y="1000" width="39" height="60" as="geometry" />
        </mxCell>
        <mxCell id="eYUs70hzC6F7jjjSVWgN-101" style="edgeStyle=orthogonalEdgeStyle;rounded=0;orthogonalLoop=1;jettySize=auto;html=1;exitX=0;exitY=0.75;exitDx=0;exitDy=0;" edge="1" parent="WIyWlLk6GJQsqaUBKTNV-1" source="eYUs70hzC6F7jjjSVWgN-96">
          <mxGeometry relative="1" as="geometry">
            <mxPoint x="100" y="1050" as="targetPoint" />
          </mxGeometry>
        </mxCell>
        <mxCell id="eYUs70hzC6F7jjjSVWgN-96" value="以用户为粒度，维护菜单记录信息，&lt;br&gt;返回实时统计数据" style="rounded=0;whiteSpace=wrap;html=1;" vertex="1" parent="WIyWlLk6GJQsqaUBKTNV-1">
          <mxGeometry x="210" y="998" width="210" height="70" as="geometry" />
        </mxCell>
        <mxCell id="eYUs70hzC6F7jjjSVWgN-97" value="平台后端" style="text;html=1;strokeColor=none;fillColor=none;align=center;verticalAlign=middle;whiteSpace=wrap;rounded=0;" vertex="1" parent="WIyWlLk6GJQsqaUBKTNV-1">
          <mxGeometry x="210" y="978" width="50" height="20" as="geometry" />
        </mxCell>
        <mxCell id="eYUs70hzC6F7jjjSVWgN-98" value="平台前端" style="text;html=1;strokeColor=none;fillColor=none;align=center;verticalAlign=middle;whiteSpace=wrap;rounded=0;" vertex="1" parent="WIyWlLk6GJQsqaUBKTNV-1">
          <mxGeometry x="54.5" y="980" width="55.5" height="20" as="geometry" />
        </mxCell>
        <mxCell id="eYUs70hzC6F7jjjSVWgN-102" value="点击菜单" style="text;html=1;strokeColor=none;fillColor=none;align=center;verticalAlign=middle;whiteSpace=wrap;rounded=0;" vertex="1" parent="WIyWlLk6GJQsqaUBKTNV-1">
          <mxGeometry x="130" y="998" width="50" height="20" as="geometry" />
        </mxCell>
        <mxCell id="eYUs70hzC6F7jjjSVWgN-103" value="反馈访问统计结果" style="text;html=1;strokeColor=none;fillColor=none;align=center;verticalAlign=middle;whiteSpace=wrap;rounded=0;" vertex="1" parent="WIyWlLk6GJQsqaUBKTNV-1">
          <mxGeometry x="125" y="1060" width="60" height="20" as="geometry" />
        </mxCell>
        <mxCell id="eYUs70hzC6F7jjjSVWgN-105" style="edgeStyle=orthogonalEdgeStyle;rounded=0;orthogonalLoop=1;jettySize=auto;html=1;exitX=0;exitY=0.5;exitDx=0;exitDy=0;entryX=1;entryY=0.5;entryDx=0;entryDy=0;" edge="1" parent="WIyWlLk6GJQsqaUBKTNV-1" source="eYUs70hzC6F7jjjSVWgN-104" target="eYUs70hzC6F7jjjSVWgN-96">
          <mxGeometry relative="1" as="geometry" />
        </mxCell>
        <mxCell id="eYUs70hzC6F7jjjSVWgN-104" value="Schedule" style="rounded=0;whiteSpace=wrap;html=1;" vertex="1" parent="WIyWlLk6GJQsqaUBKTNV-1">
          <mxGeometry x="490" y="997" width="60" height="72" as="geometry" />
        </mxCell>
        <mxCell id="eYUs70hzC6F7jjjSVWgN-106" value="定期&lt;br&gt;清理数据" style="text;html=1;strokeColor=none;fillColor=none;align=center;verticalAlign=middle;whiteSpace=wrap;rounded=0;" vertex="1" parent="WIyWlLk6GJQsqaUBKTNV-1">
          <mxGeometry x="432" y="1023" width="53" height="20" as="geometry" />
        </mxCell>
      </root>
    </mxGraphModel>
  </diagram>
</mxfile>
